<svg id="z1" xmlns="http://www.w3.org/2000/svg" width="911" height="686" viewBox="0 0 911 686">
  <metadata><?xpacket begin="﻿" id="W5M0MpCehiHzreSzNTczkc9d"?>
<x:xmpmeta xmlns:x="adobe:ns:meta/" x:xmptk="Adobe XMP Core 5.6-c138 79.159824, 2016/09/14-01:09:01        ">
   <rdf:RDF xmlns:rdf="http://www.w3.org/1999/02/22-rdf-syntax-ns#">
      <rdf:Description rdf:about=""/>
   </rdf:RDF>
</x:xmpmeta>
                                                                                                    
                                                                                                    
                                                                                                    
                                                                                                    
                                                                                                    
                                                                                                    
                                                                                                    
                                                                                                    
                                                                                                    
                                                                                                    
                                                                                                    
                                                                                                    
                                                                                                    
                                                                                                    
                                                                                                    
                                                                                                    
                                                                                                    
                                                                                                    
                                                                                                    
                                                                                                    
                           
<?xpacket end="w"?></metadata>
<defs>
    <style>
      .cls-1 {
        fill: #bebebe;
        stroke: #000;
        stroke-width: 1px;
        fill-rule: evenodd;
      }
    </style>
  </defs>
  <path id="a1" class="cls-1" d="M29.726,100.993l114.262,48.54c0.1,0.142-9.428,102.787-9.428,102.787L20.17,212.6Z"/>
  <path id="a2" class="cls-1" d="M152.161,154.3S288.6,212.446,288.776,212.222l-8.119,91.326c0.087-.174-137.67-47.782-137.67-47.782Z"/>
  <path id="a3" class="cls-1" d="M297.175,215.988l132.438,57.386c1.051,1.251-7.407,81.458-7.407,81.458-0.1.006-133.355-47.126-133.355-47.126Z"/>
  <path id="a4" class="cls-1" d="M436.339,275.988l128.242,55.351-6.558,73.113c0.279-.964-128.647-45.116-128.647-45.116Z"/>
  <path id="a5" class="cls-1" d="M20.183,222.661L134.943,261.7,124.52,368.025S9.533,334.774,9.684,334.809Z"/>
  <path id="a6" class="cls-1" d="M142.737,265.538l140.48,49.45L272.641,414.8c0.082-.042-140.291-42.449-140.291-42.449Z"/>
  <path id="a7" class="cls-1" d="M289.39,318.116l132.392,44.832L413.031,457.8c-0.238.117-132.872-38.9-132.872-38.9Z"/>
  <path id="a8" class="cls-1" d="M429.316,367.524l127.959,45.419-7.5,86.7c-0.624-.322-128.988-38.959-128.988-38.959Z"/>
  <path id="a9" class="cls-1" d="M9.339,347.321l115.792,31.924-7.054,85.479L2,437.69Z"/>
  <path id="a10" class="cls-1" d="M131.987,385.35l140.381,40.5-7.039,79.162L125.775,469.146Z"/>
  <path id="a11" class="cls-1" d="M280.034,430.644l131.1,38.248-6.623,74.068L273.24,509.109Z"/>
  <path id="a12" class="cls-1" d="M420.557,474.028l129.38,38.893s-5.552,69.835-5.569,69.884c0,0-129.806-35.4-129.989-34.8Z"/>
  <path id="b1" class="cls-1" d="M566.189,462.287l52.392-51.669L614.35,531.267s-57.849,55.778-58.615,53.987C555.72,585.218,566.189,462.287,566.189,462.287Z"/>
  <path id="b2" class="cls-1" d="M625.968,407.434L747.508,294.46s64.655,64.562,63.934,65.21l-190.022,167Z"/>
  <path id="b3" class="cls-1" d="M753.547,290.129L826.389,222.3l83.35,52.248c7.286-6.918-92.775,80.349-92.775,80.349C816.949,354.958,753.547,290.129,753.547,290.129Z"/>
  <path id="b4" class="cls-1" d="M701.012,235.79l64.018-50.776,56.022,34.695c-0.38-1.713-72.361,66.3-72.361,66.3Z"/>
  <path id="b5" class="cls-1" d="M629.667,290.8L694.4,239.764l47.12,49.952C737.777,293.8,626.01,396.8,626.01,396.8,625.917,396.743,629.667,290.8,629.667,290.8Z"/>
  <path id="b6" class="cls-1" d="M578.182,332.326l44.9-35.76s-4.384,103.218-4.525,103.263c-0.79.251-51.3,49.186-51.3,49.186C568.055,448.3,578.182,332.326,578.182,332.326Z"/>
</svg>
