<svg id="zona_1" data-name="zona 1" xmlns="http://www.w3.org/2000/svg" width="911" height="686" viewBox="0 0 911 686">
  <metadata><?xpacket begin="﻿" id="W5M0MpCehiHzreSzNTczkc9d"?>
<x:xmpmeta xmlns:x="adobe:ns:meta/" x:xmptk="Adobe XMP Core 5.6-c138 79.159824, 2016/09/14-01:09:01        ">
   <rdf:RDF xmlns:rdf="http://www.w3.org/1999/02/22-rdf-syntax-ns#">
      <rdf:Description rdf:about=""/>
   </rdf:RDF>
</x:xmpmeta>                 
<?xpacket end="w"?></metadata>
<defs>
    <style>
      .cls-1, .cls-4 {
        fill: #3f51b5;
      }

      .cls-1, .cls-3 {
        stroke: #000;
        stroke-width: 1px;
      }

      .cls-1, .cls-2, .cls-3, .cls-4, .cls-5 {
        fill-rule: evenodd;
      }

      .cls-2, .cls-3 {
        fill: #ff9800;
      }

      .cls-5 {
        fill: #009688;
      }
    </style>
  </defs>
  <path id="z1" class="cls-1" d="M9.005,568.989l185,0.022-0.01,116-185-.022Z"/>
  <path id="z2" class="cls-1" d="M207.005,568.989l185,0.022-0.01,116-185-.022Z"/>
  <path id="z3" class="cls-1" d="M207.005,407.986l185,0.028-0.01,150-185-.028Z"/>
  <path id="z4" class="cls-1" d="M9.005,407.986l185,0.028-0.01,150-185-.028Z"/>
  <path id="z5" class="cls-1" d="M207.005,248.986l185,0.028-0.01,150-185-.028Z"/>
  <path id="z6" class="cls-1" d="M9.005,248.986l185,0.028-0.01,150-185-.028Z"/>
  <path id="z7" class="cls-1" d="M9.005,103.987l185,0.026-0.01,133-185-.026Z"/>
  <path id="z8" class="cls-1" d="M207.005,103.987l185,0.026-0.01,133-185-.026Z"/>

  <path id="z1-2" data-name="z1" class="cls-2" d="M13.667,32.333C24.333,22,46.667,22,69,22V83H2C2,62.667,2,42.333,13.667,32.333Z"/>
  <path id="z2-2" data-name="z2" class="cls-3" d="M75.014,22.049l61.936-.036,0.036,59.938-61.936.036Z"/>
  <path id="z3-2" data-name="z3" class="cls-3" d="M144.014,22.049l60.937-.036,0.035,59.938-60.937.036Z"/>
  <path id="z4-2" data-name="z4" class="cls-3" d="M212.014,22.049l60.937-.036,0.035,59.938-60.937.036Z"/>
  <path id="z5-2" data-name="z5" class="cls-3" d="M280.012,22.049l51.946-.036,0.03,59.938-51.946.036Z"/>
  <path id="z6-2" data-name="z6" class="cls-4" d="M337,22c22,0,44,0,53.333,10C403,42.333,403,62.667,403,83H337V22Z"/>

  <path id="z1-3" data-name="z1" class="cls-2" d="M402,576l95.281,17.461,78.65-71.889s39.867,124.97,39.843,124.99c0,0-90.747,38.481-90.767,38.473-0.389-.153-122.37-0.614-122.37-0.614S403.5,576,402,576h0Z"/>
  <path id="z2-3" data-name="z2" class="cls-5" d="M402,429l67.067,13.9,62.694-60.644L575.7,510.272c0.281,1.641-79.656,73.5-79.656,73.5L402,566V429Z"/>
  <path id="z3-3" data-name="z3" class="cls-2" d="M402,251c-0.092.581,37.877,10.87,37.877,10.87-1.9-.063,38.7-41.2,38.7-41.2l51.339,147.912c-0.148,1-61.164,60.364-61.164,60.364L402,416V251Z"/>
  <path id="z4-3" data-name="z4" class="cls-2" d="M402,104l23.669,9.155,16.5-8.653,33.4,106.517s-36.924,39.5-36.883,39.306L402,240V104Z"/>

  <path id="z1-4" data-name="z1" class="cls-4" d="M604.393,537.738L731.422,493.7l34.851,110.223-127.029,44.04Z"/>
  <path id="z2-4" data-name="z2" class="cls-4" d="M747.987,486.97l127.127-43.959,34.878,110.023L782.865,596.993Z"/>
  <path id="z3-4" data-name="z3" class="cls-4" d="M555.585,382.6l125.128-39.567,44.752,141.523L600.336,524.126Z"/>
  <path id="z4-4" data-name="z4" class="cls-5" d="M698.987,330.128l126.5-40.2,45.286,142.5-126.5,40.2Z"/>
  <path id="z5-3" data-name="z5" class="cls-4" d="M505.152,230.29l126.1-39.9,44.875,141.822-126.1,39.9Z"/>
  <path id="z6-3" data-name="z6" class="cls-2" d="M649.906,178.137l125.072-40.655,46.031,141.607L695.937,319.745Z"/>
  <path id="z7-2" data-name="z7" class="cls-4" d="M460.567,94.172l125.445-40.09,40.359,126.287-125.445,40.09Z"/>
  <path id="z8-2" data-name="z8" class="cls-4" d="M604.427,41.227L730.261,0.381l40.875,125.925L645.3,167.152Z"/>
</svg>
